<svg t="1590730273455" class="icon" viewBox="0 0 1024 1024" version="1.1" xmlns="http://www.w3.org/2000/svg" p-id="3652" width="200" height="200"><path d="M484 428v224c0 15.5 12.5 28 28 28s28-12.5 28-28V428c0-15.5-12.5-28-28-28s-28 12.5-28 28z" p-id="3653" fill="#faad14"></path><path d="M512 764m-28 0a28 28 0 1 0 56 0 28 28 0 1 0-56 0Z" p-id="3654" fill="#faad14"></path><path d="M952.6 825.1l-393.2-681c-10.5-18.2-29-27.4-47.4-27.4s-36.9 9.1-47.4 27.4l-393.2 681c-21.1 36.5 5.3 82.1 47.4 82.1h786.4c42.1 0 68.5-45.6 47.4-82.1z m-832.7 28L512 174l393.2 677.2-785.3 1.9z" p-id="3655" fill="#faad14"></path></svg>